<svg id="Group_320" data-name="Group 320" xmlns="http://www.w3.org/2000/svg" width="46.965" height="40.116" viewBox="0 0 46.965 40.116">
  <g id="Group_319" data-name="Group 319" transform="translate(0 0)">
    <g id="Group_318" data-name="Group 318">
      <path id="Path_61" data-name="Path 61" d="M291.914,45.161A3.914,3.914,0,1,0,288,41.247,3.925,3.925,0,0,0,291.914,45.161Z" transform="translate(-261.582 -37.333)" fill="#68b190"/>
      <path id="Path_62" data-name="Path 62" d="M9.784,261.333a9.784,9.784,0,1,0,9.784,9.784A9.813,9.813,0,0,0,9.784,261.333Zm0,16.633a6.849,6.849,0,1,1,6.849-6.849A6.807,6.807,0,0,1,9.784,277.966Z" transform="translate(0 -240.786)" fill="#68b190"/>
      <path id="Path_63" data-name="Path 63" d="M177.562,123.643V119.73a9.883,9.883,0,0,1-7.143-2.837l-3.816-3.718a3.67,3.67,0,0,0-5.381,0l-5.381,5.381a3.924,3.924,0,0,0-1.174,2.74,4.358,4.358,0,0,0,1.174,2.837L162,129.612V139.4h3.914V127.166l-4.305-4.305,4.6-4.7,1.468,1.468A13.409,13.409,0,0,0,177.562,123.643Z" transform="translate(-140.479 -105.151)" fill="#68b190"/>
      <path id="Path_64" data-name="Path 64" d="M308.45,261.333a9.784,9.784,0,1,0,9.784,9.784A9.813,9.813,0,0,0,308.45,261.333Zm0,16.633a6.849,6.849,0,1,1,6.849-6.849A6.807,6.807,0,0,1,308.45,277.966Z" transform="translate(-271.27 -240.786)" fill="#68b190"/>
    </g>
  </g>
</svg>
