<svg xmlns="http://www.w3.org/2000/svg" width="108" height="108" viewBox="0 0 108 108">
  <g id="Group_369" data-name="Group 369" transform="translate(-1501 -5772)">
    <circle id="Ellipse_6" data-name="Ellipse 6" cx="54" cy="54" r="54" transform="translate(1501 5772)" fill="#fff"/>
    <g id="_x31_16" transform="translate(1528.997 5797.917)">
      <path id="Path_28" data-name="Path 28" d="M2.1,50.7c3.7.1,7.4,0,11.1.1,3.7,0,7.4,0,11.1-.1a.9.9,0,0,0,.9-.9c0-1.9-.1-3.7-.1-5.6v-.9c-.1-2.6-.1-5.2-.2-7.8a5.116,5.116,0,0,0-.3-2,3.816,3.816,0,0,0-1.2-1.7,3.1,3.1,0,0,0-1.8-.9,6.23,6.23,0,0,0-1.9-.1c-2.4.1-4.8.2-7.2.4,2.4.2,4.8.3,7.2.4a4.678,4.678,0,0,1,1.7.2,5.67,5.67,0,0,1,1.3.8,3.528,3.528,0,0,1,.8,1.3,4.049,4.049,0,0,1,.1,1.6c-.1,2.4-.1,4.8-.2,7.1-3.4-.1-6.8-.1-10.2-.1H7.7c-1.6,0-3.2,0-4.7.1-.1-2.2-.1-4.3-.2-6.5a8.477,8.477,0,0,1,0-1.6,3.36,3.36,0,0,1,.5-1.4,3.464,3.464,0,0,1,2.5-1.5c2.3-.1,4.6-.2,6.9-.4-2.4-.2-4.7-.4-7-.4a4.032,4.032,0,0,0-3.3,1.7,3.7,3.7,0,0,0-.8,1.8,11.484,11.484,0,0,0-.1,1.8c-.1,2.3-.1,4.8-.2,7.1,0,.1-.1.2-.1.3v1.1c0,1.7-.1,3.5-.1,5.2a1.174,1.174,0,0,0,1,.9Zm11.1-6.3c3.4,0,6.8,0,10.2-.1,0,1.5-.1,3-.1,4.5-3.4,0-6.8,0-10.1-.1-3.4,0-6.8,0-10.2.1-.1-5-.1-4-.1-4.5,1.6,0,3.1.1,4.7.1Z"/>
      <path id="Path_29" data-name="Path 29" d="M36.6,1.3H36a2.123,2.123,0,0,0-1.7,1.8,1.268,1.268,0,0,1-.1.6c0,.5-.1,1.2-.1,3.2H32.6a2.771,2.771,0,0,0-2.3,1.7,1.209,1.209,0,0,0-.3,1v3.1a2.138,2.138,0,0,0-1.8.9,1.777,1.777,0,0,0-.4,1c-.1.4,0,.7-.1,1-.6,24.3-.4,15.9-.5,17.8l-.1,7.1v7.2a3.715,3.715,0,0,0,3.3,3.1h3.7l7.1-.1,3.6-.1c.2,0,2.8-.1,2.7-.1a2.344,2.344,0,0,0,1.1-.2A3.33,3.33,0,0,0,50.9,47c-.6-24.3-.4-15.9-.5-17.8-.1-4.7-.1-9.5-.1-14.2,0,4.7,0,9.5-.1,14.2,0,1.8.2-6.6-.5,17.8a2.067,2.067,0,0,1-1.5,2h-.8c-.2,0-2.8-.1-2.7-.1l-3.6-.1H30.5A1.7,1.7,0,0,1,29,47.4v-7l-.1-7.1c0-1.8.2,6.6-.5-17.8v-.8a1.08,1.08,0,0,1,.3-.7,1.525,1.525,0,0,1,1.2-.7.961.961,0,0,0,.9.7c1.4,0,2.7-.1,4.1-.1,2.8-.2,3.5-.2,8.2-.6,1.4-.1,2.7-.2,4.1-.2h1.3a2.01,2.01,0,0,1,.8.4,1.9,1.9,0,0,1,.8,1.5,1.955,1.955,0,0,0-.7-1.5,2.01,2.01,0,0,0-.8-.4,2.719,2.719,0,0,0-.9,0h-.4c0-1.1,0-2.3-.1-3.4,0,1.1,0,2.2-.1,3.3-1.3-.1-2.7-.1-4-.2-5-.4-7.5-.6-11.3-.7V9.6a.367.367,0,0,1,.1-.3,1.024,1.024,0,0,1,.5-.6.367.367,0,0,1,.3-.1h.6l1.1-.1a1.421,1.421,0,0,0,.6.2c.7,0,1.4-.1,2-.1a12.31,12.31,0,0,0,2-.2c1.4-.2,2.7-.3,4.1-.5.1,0,.1,0,.1-.1.8,0,1.5-.1,2.3-.1a1.934,1.934,0,0,1,1.6,1.9,2.132,2.132,0,0,0-1.6-2,17.7,17.7,0,0,0-2.3-.1,13.4,13.4,0,0,1-.1-2c0-.7-.1-1.4-.1-2.1a14.769,14.769,0,0,1-.1,2.1c0,.6-.1,1.2-.1,1.9-1.3-.1-2.6-.3-3.9-.5a15.029,15.029,0,0,0-2-.2,4.1,4.1,0,0,1-1.1-.1A22.6,22.6,0,0,0,35.7,4c0-.7-.1-.9.1-1.2.1-.1.2-.3.4-.3.1,0,.2-.1.3-.1a.6.6,0,0,0,.4-.1c1.2-.1,2.4-.3,3.5-.4l1.1.1a1.949,1.949,0,0,1,.8.1,1.568,1.568,0,0,1,.9,1.4A1.65,1.65,0,0,0,42.3,2a1.486,1.486,0,0,0-.9-.2l-.9-.1c-2-.2-3.6-.4-3.9-.4Z"/>
      <path id="Path_30" data-name="Path 30" d="M43,33.5c-.2-2.7-.4-5.4-.6-7.9l-.6,8.3c-.1,1.3-.1,2.6-.2,4-.1,1-.1,2-.1,3-1.6,0-3.1,0-4.7-.1,0-2.4,0-4.7-.1-7.1-.1-2.5-.2-5.1-.3-7.6,1.9-.1,3.9-.3,6-.5-2-.2-4.3-.4-6.6-.5a.472.472,0,0,0-.5.5v.1q-.3,4.05-.3,8.1c-.1,2.7-.1,5.4-.1,8.1a1.075,1.075,0,0,0,1,1c2.2,0,4.4,0,6.6-.1h.1a.9.9,0,0,0,.9-.9c0-1.4-.1-2.8-.1-4.2a32.923,32.923,0,0,1-.4-4.2Z"/>
    </g>
  </g>
</svg>
