<svg xmlns="http://www.w3.org/2000/svg" width="108" height="108" viewBox="0 0 108 108">
  <g id="Group_370" data-name="Group 370" transform="translate(-1501 -6016)">
    <circle id="Ellipse_12" data-name="Ellipse 12" cx="54" cy="54" r="54" transform="translate(1501 6016)" fill="#fff"/>
    <g id="_x32_2" transform="translate(1525.285 6038.515)">
      <path id="Path_51" data-name="Path 51" d="M61.583,46.389l-.749-.749c-.125-.125-8.486-8.362-7.862-7.862l-2-2-.5-.5a2.975,2.975,0,0,0-1.373-.749,7.472,7.472,0,0,0-1.5-.25h-3.37c-4.368.125-12.23.125-26.583.5-1.123-1,3.994,3.744-10.608-9.984a3.355,3.355,0,0,0-2.246-1,2.923,2.923,0,0,0-2.246,1A2.63,2.63,0,0,1,4.8,24.05a3.243,3.243,0,0,1,2,1.123C6.92,25.3,17.778,36.9,17.154,36.155h.25c14.1.25,22.339.374,26.832.374H47.6a1.351,1.351,0,0,1,.749.125c.25.125.374.25.624.374l.624.749L51.224,39.4c.125.125,8.736,8.861,8.611,8.736.125.125.25.374.374.5a1.733,1.733,0,0,1-.874,2.246,1.477,1.477,0,0,1-1.248.125c-.5-.125-.624-.374-1.248-1l-3.12-3.12c-.25-.25-6.864-6.739-6.739-6.614h-.5c-2.371,0-4.618,0-6.989.125h-.25c-2.122-.125-4.368-.125-6.49-.125s-4.368,0-6.49.125h-.125a.648.648,0,0,0-.5.25c-2,0-4.118,0-6.115.125l-3.37.125a3.692,3.692,0,0,1-1.248-.25,1.723,1.723,0,0,1-.5-.374l-.624-.624L8.917,35.032c-.125-.125-6.49-6.115-6.115-5.741a4.886,4.886,0,0,1-1-1.248,2.89,2.89,0,0,1,.5-3,3.045,3.045,0,0,0,.125,4.618c.125.125,6.115,6.49,5.741,6.115l4.618,4.867.624.624a3.309,3.309,0,0,0,.749.624,3.952,3.952,0,0,0,2,.5l3.37.125c1.622,0,3.245,0,4.742.125-1,1.373-1.872,2.746-2.87,4.118-1.248,1.872-2.5,3.869-3.619,5.866,1.747-1.622,3.245-3.245,4.867-4.992,1.373-1.5,2.746-3.12,4.118-4.742,2,.125,3.994.125,5.99.125s3.994,0,5.99-.125c1.373,1.622,2.746,3.245,4.118,4.742a61,61,0,0,0,4.867,4.992c-1.123-2-2.371-3.994-3.619-5.866-.874-1.248-1.747-2.621-2.621-3.869h4.493l5.99,5.99L55.093,52l.874.874a4.493,4.493,0,0,0,4.493.5,3.748,3.748,0,0,0,2-2.371,3.887,3.887,0,0,0-.125-3.12,2.443,2.443,0,0,0-.749-1.5Z" transform="translate(0 4.811)"/>
      <path id="Path_52" data-name="Path 52" d="M35.668,19.425a10.427,10.427,0,0,0-3.37-7.238A9.31,9.31,0,0,0,25.06,9.816a9.848,9.848,0,0,1,6.365,3.245,8.712,8.712,0,0,1,2.246,6.365,8.963,8.963,0,0,1-2.746,5.99,8.286,8.286,0,0,1-5.99,2.371,8.833,8.833,0,0,1-5.99-2.371,8.963,8.963,0,0,1-2.746-5.99,9.271,9.271,0,0,1,2.246-6.365A10.152,10.152,0,0,1,24.81,9.816a9.8,9.8,0,0,0-7.238,2.371,10.427,10.427,0,0,0-3.37,7.238,10.823,10.823,0,0,0,3,7.738,11.114,11.114,0,0,0,7.613,3.245,11.177,11.177,0,0,0,7.738-3.245,10.444,10.444,0,0,0,3.12-7.738Z" transform="translate(3.201 1.324)"/>
      <path id="Path_53" data-name="Path 53" d="M23.054,7.894a3.561,3.561,0,0,0,1-.874,1.5,1.5,0,0,0,0-1.747,3.561,3.561,0,0,0-1-.874,3.561,3.561,0,0,0-1,.874,1.5,1.5,0,0,0,0,1.747A2.312,2.312,0,0,0,23.054,7.894Z" transform="translate(5.082 0)"/>
      <path id="Path_54" data-name="Path 54" d="M23.054,27.7a3.561,3.561,0,0,0-1,.874,1.5,1.5,0,0,0,0,1.747,3.561,3.561,0,0,0,1,.874,3.561,3.561,0,0,0,1-.874,1.5,1.5,0,0,0,0-1.747A2.381,2.381,0,0,0,23.054,27.7Z" transform="translate(5.082 5.779)"/>
      <path id="Path_55" data-name="Path 55" d="M32.621,8.225A6.124,6.124,0,0,0,31.248,8.1,1.6,1.6,0,0,0,30,9.348a5.119,5.119,0,0,0,.125,1.373,6.124,6.124,0,0,0,1.373.125A1.6,1.6,0,0,0,32.746,9.6,6.124,6.124,0,0,0,32.621,8.225Z" transform="translate(7.122 0.918)"/>
      <path id="Path_56" data-name="Path 56" d="M13.625,27.321A6.124,6.124,0,0,0,15,27.446,1.6,1.6,0,0,0,16.246,26.2a1.834,1.834,0,0,0-.125-1.373,6.124,6.124,0,0,0-1.373-.125A1.6,1.6,0,0,0,13.5,25.948,6.124,6.124,0,0,0,13.625,27.321Z" transform="translate(3.03 5.035)"/>
      <path id="Path_57" data-name="Path 57" d="M33.974,16.756a3.561,3.561,0,0,0-.874,1,3.561,3.561,0,0,0,.874,1,1.5,1.5,0,0,0,1.747,0,3.561,3.561,0,0,0,.874-1,3.561,3.561,0,0,0-.874-1A1.5,1.5,0,0,0,33.974,16.756Z" transform="translate(7.891 2.995)"/>
      <path id="Path_58" data-name="Path 58" d="M10.674,16.756a3.561,3.561,0,0,0-.874,1,3.561,3.561,0,0,0,.874,1,1.5,1.5,0,0,0,1.747,0,3.561,3.561,0,0,0,.874-1,3.561,3.561,0,0,0-.874-1A1.5,1.5,0,0,0,10.674,16.756Z" transform="translate(2.112 2.995)"/>
      <path id="Path_59" data-name="Path 59" d="M31.248,27.362a1.834,1.834,0,0,0,1.373-.125,6.124,6.124,0,0,0,.125-1.373A1.6,1.6,0,0,0,31.5,24.616a1.834,1.834,0,0,0-1.373.125A6.124,6.124,0,0,0,30,26.114a1.8,1.8,0,0,0,1.248,1.248Z" transform="translate(7.122 4.993)"/>
      <path id="Path_60" data-name="Path 60" d="M14.748,10.862a1.834,1.834,0,0,0,1.373-.125,6.124,6.124,0,0,0,.125-1.373A1.6,1.6,0,0,0,15,8.116a1.834,1.834,0,0,0-1.373.125A6.124,6.124,0,0,0,13.5,9.614,1.8,1.8,0,0,0,14.748,10.862Z" transform="translate(3.03 0.901)"/>
    </g>
  </g>
</svg>
