<svg xmlns="http://www.w3.org/2000/svg" width="26.413" height="31.173" viewBox="0 0 26.413 31.173">
  <g id="Group_326" data-name="Group 326" transform="translate(-31.744)">
    <g id="Group_323" data-name="Group 323" transform="translate(37.656)">
      <g id="Group_322" data-name="Group 322" transform="translate(0)">
        <path id="Path_70" data-name="Path 70" d="M117.886,0a7.294,7.294,0,1,0,7.294,7.294A7.291,7.291,0,0,0,117.886,0Z" transform="translate(-110.592)" fill="#68b190"/>
      </g>
    </g>
    <g id="Group_325" data-name="Group 325" transform="translate(31.744 15.433)">
      <g id="Group_324" data-name="Group 324" transform="translate(0)">
        <path id="Path_71" data-name="Path 71" d="M47.792,205.824H42.11A10.371,10.371,0,0,0,31.744,216.19v4.223a1.131,1.131,0,0,0,1.152,1.152h24.11a1.131,1.131,0,0,0,1.152-1.152V216.19A10.371,10.371,0,0,0,47.792,205.824Z" transform="translate(-31.744 -205.824)" fill="#68b190"/>
      </g>
    </g>
  </g>
</svg>
