<svg xmlns="http://www.w3.org/2000/svg" width="108" height="108" viewBox="0 0 108 108">
  <g id="Group_372" data-name="Group 372" transform="translate(-883 -6016)">
    <g id="Group_297" data-name="Group 297" transform="translate(97 998)">
      <circle id="Ellipse_9" data-name="Ellipse 9" cx="54" cy="54" r="54" transform="translate(786 5018)" fill="#fff"/>
      <g id="Group_8" data-name="Group 8" transform="translate(806.042 5030.602)">
        <path id="Path_42" data-name="Path 42" d="M60.756,42.053c-1.581-.2-5.028-.28-6.585-.318-2.63-.048-5.106-.077-7.453-.093a4.264,4.264,0,0,0,.09-.667c.185-4.271-4.052-6.063-5.931-4.122.2-5.221-5.446-8.057-8.309-5.028-.795-4.612-6.628-4.39-8.576-1.6a5.709,5.709,0,0,0-.871-.963c-6.062-5.343-13.264,3.695-8.773,8.431.082.086.163.162.242.232-2.685.774-3.614,3.4-2.947,4.537-4.985.412-5.185.778-5.153,1,.058.465.528.358,20.522.148,6.649-.031,15.47-.124,27.116.089.9.022,5.72.131,6.684.326.976.28,3.105,1.166,2.844,2.144-.22.824-1.651,1.69-2.924,2.051a28.167,28.167,0,0,1-6.18.5c-31.829.808-23.417.584-38.39,1.014a42.435,42.435,0,0,1-9.6-.65,5.35,5.35,0,0,1-3.108-1.524,2.837,2.837,0,0,1-.624-1.238,2.059,2.059,0,0,1,.083-1.148,3.772,3.772,0,0,1,1.009-1.359c.3-.274.463-.413.443-.444s-.22.056-.567.286a3.523,3.523,0,0,0-1.249,1.362,2.446,2.446,0,0,0-.2,1.383A3.306,3.306,0,0,0,3,47.917a5.881,5.881,0,0,0,3.389,1.9c.259.067.528.126.8.185a11.444,11.444,0,0,0-.145,1.209,22.706,22.706,0,0,0,.074,4.152c.718,6.471,4.362,11.9,10.743,13.339,7.126,1.659,32.549,2.026,37.144-.035,6.28-2.768,7.746-14.375,5.569-18.5,2.2-.441,4.765-1.817,5.019-4a3.04,3.04,0,0,0-.029-.611C65.225,43.692,62.645,42.317,60.756,42.053Zm-47.845.308a4.529,4.529,0,0,1,2.063-2.68,8.56,8.56,0,0,1,1.489-.643c1.047-.347,2-.618,1.977-.9-.034-.4-1.89-.591-3.155-.381-2.939-4.288,1.835-10.638,6.7-7.1a7.346,7.346,0,0,1,1.386,1.357c.36.441.567.739,1,.606.5-.154.4-.716.228-1.254a4.758,4.758,0,0,0-.185-.445c2.038-1.555,5.6-1.522,6.272,1.258.371,1.538-.155,3.1.8,3.248.267.041.515.063.792-.57a5.582,5.582,0,0,0,.375-1.9c2.2-1.773,5.386-.712,6.425,3.355.344,1.406.313,2,.988,2.034.305.017.563-.033.719-.694a3.421,3.421,0,0,1,1.825-.178c1.955.436,2.263,2.808,2.488,4.152C36.384,41.6,21.633,41.759,12.911,42.36ZM58.425,62.03c-2.479,5.778-5.158,5.494-13.413,5.953-5.7.324-25.435.87-30.407-2.042-3.113-1.78-5.763-5.271-6.734-10.684a32.673,32.673,0,0,1-.435-4.039c-.028-.523-.049-.916-.073-1.172a44.089,44.089,0,0,0,8.8.777c6.734.018,20.543-.134,38.415-.3a40.484,40.484,0,0,0,5.29-.235C59.818,51.608,60.8,56.485,58.425,62.03Z" transform="translate(0 -3.839)"/>
        <path id="Path_43" data-name="Path 43" d="M87.816,20.4c.06-.479-3.129-.244-3.693,2.913a5.461,5.461,0,0,0,2.977,5.8c2.711,1.216,6.3-2.337,5.368-5.245-.217-.636-.815-1.8-1.488-1.484-.771.362.194,1.591-.153,2.741-1.239,4.1-5.491,1.875-5.326-1.641C85.586,21.013,87.826,20.655,87.816,20.4Z" transform="translate(-42.357 0)"/>
        <path id="Path_44" data-name="Path 44" d="M116.879,28.052a4.729,4.729,0,0,0-4.243-1.838c-1.011.093-1.039.362-1.054.625-.059,1.014,2.634.656,3.713,2.3,1.535,2.311-2.878,4.006-4.8,1.686a2.414,2.414,0,0,1-.583-1.322c-.139-1.419,1.263-1.8,1.251-1.978,0-.062-.142-.14-.422-.134-2.409.064-2.875,4.215.439,5.845C114.679,34.987,119.39,31.653,116.879,28.052Z" transform="translate(-55.197 -3.107)"/>
        <path id="Path_45" data-name="Path 45" d="M103.275,48.112c3.191-.814,2.993-5.184-.2-6.217-.805-.209-.913.058-1.011.3-.107.259-.13.479.352.923,4.563,4.587-4.563,4.041-1.989-.227.294-.507.618-.773.553-.9-.159-.389-2.5.739-2.17,3.18A3.6,3.6,0,0,0,103.275,48.112Z" transform="translate(-49.994 -11.199)"/>
      </g>
    </g>
  </g>
</svg>
