<svg xmlns="http://www.w3.org/2000/svg" width="108" height="108" viewBox="0 0 108 108">
  <g id="Group_366" data-name="Group 366" transform="translate(-593 -5771)">
    <g id="Group_296" data-name="Group 296" transform="translate(-197 998)">
      <circle id="Ellipse_11" data-name="Ellipse 11" cx="54" cy="54" r="54" transform="translate(790 4773)" fill="#fff"/>
      <g id="Group_9" data-name="Group 9" transform="translate(819.35 4800.2)">
        <path id="Path_49" data-name="Path 49" d="M40.4,36.7a18.908,18.908,0,0,0-.8-4,28.318,28.318,0,0,0-.8,4c-.1.7-.1,1.3-.2,2v.9a1.854,1.854,0,0,1-.2.7,2.768,2.768,0,0,1-2.1,1.8,31.439,31.439,0,0,0-4,.8,25.749,25.749,0,0,0,4,.8,4.126,4.126,0,0,0,4-2.6,4.961,4.961,0,0,0,.3-1.3V38.7a15.03,15.03,0,0,1-.2-2Z"/>
        <path id="Path_50" data-name="Path 50" d="M51.2,26.9a3.494,3.494,0,0,0-1.3-.5,3.42,3.42,0,0,0-1.1.1,19.093,19.093,0,0,0-3.3.6l-.1-3.3h.4a2.882,2.882,0,0,0,2.7-2.3,2.82,2.82,0,0,0-1.6-3.1,2.353,2.353,0,0,0-.8-.2V16.5l-.1-.8a9.58,9.58,0,0,0-1.2-3.2,8.854,8.854,0,0,0-5.5-3.9A12.677,12.677,0,0,0,36,8.3H34.5v-1a2.769,2.769,0,0,0-.1-.9,3.023,3.023,0,0,0-2.6-2.1H21.6A3.148,3.148,0,0,0,19,6.4a2.769,2.769,0,0,0-.1.9v1H17.4a12.677,12.677,0,0,0-3.3.3,9.881,9.881,0,0,0-5.5,3.9,9.58,9.58,0,0,0-1.2,3.2l-.1.8v1.7a2.766,2.766,0,0,0-2.5,2.2,2.829,2.829,0,0,0,1.6,3.2l.9.3h.6l-.1,3.3a18.575,18.575,0,0,0-3.4-.6c-.4,0-.6-.1-1.1-.1A2.106,2.106,0,0,0,2,27,2.99,2.99,0,0,0,.7,29.5,3.127,3.127,0,0,0,2,32a3.494,3.494,0,0,0,1.3.5,3.42,3.42,0,0,0,1.1-.1,19.093,19.093,0,0,0,3.3-.6v1.6l-.1,5.2v5.3a5.634,5.634,0,0,0,3.3,4.8,8.8,8.8,0,0,0,1.5.5,7.084,7.084,0,0,0,1.4.1H39.6a7.084,7.084,0,0,0,1.4-.1,4.424,4.424,0,0,0,1.5-.5,5.634,5.634,0,0,0,3.3-4.8V38.6l-.1-5.2V31.8a19.848,19.848,0,0,0,3.2.6c.4,0,.6.1,1.1.1a2.106,2.106,0,0,0,1.3-.5,2.99,2.99,0,0,0,1.3-2.5,3.388,3.388,0,0,0-1.4-2.6ZM20.2,7.7V7.1c0-.1.1-.3.1-.4a1.594,1.594,0,0,1,1.2-.9h10a1.4,1.4,0,0,1,1.2.9.6.6,0,0,1,.1.4V8H20.2ZM8.6,16.5l.1-.7a8.486,8.486,0,0,1,1.1-2.6,7.173,7.173,0,0,1,4.5-3.1,13.216,13.216,0,0,1,2.9-.2H36a13.216,13.216,0,0,1,2.9.2,7.443,7.443,0,0,1,4.5,3.1,7.564,7.564,0,0,1,1.1,2.6l.1.7.1.7v.9c-2.9.1-5.8.1-8.6.3-3.1.1-6.1.2-9.2.4-3.7-.2-7.3-.3-11-.5l-5.6-.2H8.7v-.9ZM6.8,22A1.339,1.339,0,0,1,6,20.6a1.278,1.278,0,0,1,1.2-1.1h.5l2.3-.1,5.6-.2c3.7-.2,7.3-.3,11-.5,3.1.2,6.1.3,9.2.4,3.2.1,6.3.2,9.4.3h.1a1.719,1.719,0,0,1,.8.1,1.231,1.231,0,0,1,.7,1.5,1.3,1.3,0,0,1-1.3,1H37.3l-11.2-.1L14.9,22h-7a1.973,1.973,0,0,1-1.1,0ZM4.3,30.6c-.3,0-.7-.1-.9-.1-.2-.1-.4-.1-.5-.3a1.086,1.086,0,0,1-.4-.9.975.975,0,0,1,.4-.9,2.186,2.186,0,0,1,.5-.3c.1,0,.6-.1.9-.1a19.093,19.093,0,0,0,3.3-.6l-.1,3.8A30.285,30.285,0,0,0,4.3,30.6ZM44,33.2l-.1,10.3a3.733,3.733,0,0,1-2.3,3.2c-.3.1-.6.2-1,.3a4.034,4.034,0,0,1-1.1,0H12.6a1.929,1.929,0,0,1-1-.3,3.733,3.733,0,0,1-2.3-3.2L9,33.2l-.2-9.5h.4l5.6.1,11.2.1,11.2-.1,5.6-.1h1.3Zm6.1-2.9a2.186,2.186,0,0,1-.5.3c-.1,0-.6.1-.9.1a16.471,16.471,0,0,0-3.2.6l-.1-3.8a19.093,19.093,0,0,0,3.3.6c.3,0,.7.1.9.1.2.1.4.1.5.3A1.184,1.184,0,0,1,50.1,30.3Z"/>
      </g>
    </g>
  </g>
</svg>
