<svg xmlns="http://www.w3.org/2000/svg" width="108" height="108" viewBox="0 0 108 108">
  <g id="Group_367" data-name="Group 367" transform="translate(-891 -5772)">
    <circle id="Ellipse_4" data-name="Ellipse 4" cx="54" cy="54" r="54" transform="translate(891 5772)" fill="#fff"/>
    <g id="_x35_1" transform="translate(917.5 5797.721)">
      <path id="Path_22" data-name="Path 22" d="M51.989,27.727c.045-2.782.3-15.876.261-18.026a4.675,4.675,0,0,0-1.285-3.014,4.768,4.768,0,0,0-2.956-1.454l-.42-.024-.34,0-2-.019L39.9,5.164,29.217,5.132l-10.686.033-5.343.025-2,.019-.34,0-.42.024A4.765,4.765,0,0,0,7.471,6.69,4.672,4.672,0,0,0,6.187,9.7c-.033,2.13.212,14.953.261,18a5.287,5.287,0,0,0-3.8,5.014l.007,1.353.03,2.672.156,10.713v.005a.713.713,0,0,0,.729.7q1.6-.035,3.2-.064c-.02.494-.042.989-.051,1.483l-.014,1.075a3.588,3.588,0,0,0,.041.762,1.909,1.909,0,0,0,.585,1.017A1.934,1.934,0,0,0,8.4,52.92a2.239,2.239,0,0,0,.27.016H8.8l.269,0,1.075-.022c.717-.009,1.433-.056,2.15-.085,1.258-.046,1.718-.1,3.225-.211l.269-.024c.08-.011.172-.012.356-.042a1.505,1.505,0,0,0,1.217-1.242,2.56,2.56,0,0,0-.029-.695l-.16-1.151-.278-1.6c3.42-.106,8.857-.219,13.917-.431-4.54-.19-9.08-.291-13.619-.423-1.321-.042-2.641-.068-3.962-.1-.231-.028-.448-.062-.684-.088-1.533-.177-3.154-.31-4.777-.367a.925.925,0,0,0-.72.317l-2.737-.055.156-10.932c3.976.387,7.951.606,11.927.751,4.274.17,8.549.215,12.823.234,4.274-.021,8.549-.067,12.823-.237,3.989-.147,7.978-.365,11.967-.752l.177,11c-2.282.044-4.564.106-6.846.163-.317-.04-.619-.086-.945-.121-1.533-.177-3.154-.31-4.777-.367a.928.928,0,0,0-.911.656c-3.3.092-6.6.183-9.895.321,3.273.137,6.546.228,9.82.319-.029.61-.052,1.22-.063,1.83l-.014,1.075a3.593,3.593,0,0,0,.041.762,1.931,1.931,0,0,0,1.649,1.509,2.238,2.238,0,0,0,.27.016h.134l.269,0,1.075-.022c.717-.009,1.433-.056,2.15-.085,1.261-.046,1.735-.1,3.225-.211l.269-.024c.08-.011.172-.012.356-.042a1.506,1.506,0,0,0,1.217-1.242,2.563,2.563,0,0,0-.029-.695l-.16-1.151L50.766,48c1.366.029,2.732.072,4.1.1h0a.656.656,0,0,0,.666-.645c.3-18.545.124-7.706.213-13.381l.015-1.353A5.271,5.271,0,0,0,55.5,31.13,5.328,5.328,0,0,0,51.989,27.727ZM7.948,17.767l.075-5.343c.012-.867.007-1.833.034-2.62a2.77,2.77,0,0,1,.8-1.782A2.814,2.814,0,0,1,10.61,7.2l.247-.009.328,0,.668.006,1.336.012,5.343.024,10.686.033L39.9,7.236l5.343-.023,2-.019.328,0,.247.009a2.794,2.794,0,0,1,2.551,2.6c.027.787.022,1.752.034,2.62l.074,5.343.17,9.733c-4.38-.1-29.929-.168-42.829-.03-.016,0-.031,0-.046,0Zm.72,33.046h0C8.625,50.811,8.668,50.813,8.668,50.813Zm7.8-1.126-.16,1c-.04.409-.085.433-.2.492a.193.193,0,0,1-.14.006.732.732,0,0,0-.18-.026l-.269-.024-1.075-.081c-.717-.062-1.433-.1-2.15-.13s-1.433-.076-2.15-.085l-1.075-.022-.237,0c-.022-1.867-.013-1.252-.058-2.481,1.065-.07,2.138-.166,3.267-.3l.54-.069c1.391-.031,2.783-.061,4.174-.1C16.663,48.51,16.56,49.126,16.466,49.687ZM42.04,34.866c-4.274-.17-8.549-.216-12.823-.237-4.274.019-8.549.064-12.823.234-3.975.146-7.95.364-11.925.751L4.5,32.749a3.45,3.45,0,0,1,.19-1.028,3.415,3.415,0,0,1,3.173-2.28l21.352.075,21.353-.1a3.441,3.441,0,0,1,3.2,2.3,3.5,3.5,0,0,1,.192,1.036l.024,1.319L54,35.618C50.017,35.231,46.028,35.012,42.04,34.866Zm.476,15.947h0C42.473,50.811,42.516,50.813,42.516,50.813Zm7.8-1.126-.16,1c-.04.409-.085.433-.2.492a.193.193,0,0,1-.14.006.731.731,0,0,0-.18-.026l-.269-.024c-1.409-.1-1.942-.164-3.225-.211-.717-.029-1.433-.076-2.15-.085l-1.075-.022-.236,0c-.023-1.868-.013-1.259-.058-2.481,1.065-.07,2.138-.166,3.267-.3L46.9,47.9q1.842.047,3.683.088C50.5,48.591,50.4,49.164,50.314,49.687Z" transform="translate(0 0)"/>
      <path id="Path_23" data-name="Path 23" d="M16.064,20.38c.739.89,1.449,1.8,2.221,2.666l.087.1a.785.785,0,0,0,1.242-.1c1.09-1.681,2.128-3.4,3.057-5.2.747,1.126,1.535,2.222,2.3,3.334l2.631,3.6a1.057,1.057,0,0,0,1.709,0c.875-1.2,1.765-2.4,2.629-3.606.767-1.111,1.553-2.209,2.3-3.335.929,1.8,1.967,3.523,3.057,5.2a.788.788,0,0,0,1.249.1l.086-.1c.772-.865,1.48-1.778,2.22-2.666.717-.906,1.416-1.825,2.123-2.739a1.048,1.048,0,0,0,0-1.281c-.709-.912-1.4-1.834-2.125-2.737-.739-.89-1.449-1.8-2.221-2.666l-.087-.1a.786.786,0,0,0-1.242.1c-1.1,1.695-2.145,3.429-3.081,5.246C32.39,14.022,30.5,11.882,28.458,9.86c1.324,2.45,2.8,4.789,4.322,7.087-.834,1-1.636,2.014-2.454,3.021-.631.8-1.248,1.615-1.868,2.425l-1.867-2.427c-.819-1.006-1.619-2.025-2.452-3.02,1.526-2.3,3-4.636,4.319-7.086-2.045,2.02-3.934,4.158-5.764,6.34a60.3,60.3,0,0,0-3.077-5.244.788.788,0,0,0-1.249-.1l-.086.1c-.772.865-1.48,1.777-2.22,2.666-.717.906-1.416,1.825-2.123,2.739a1.048,1.048,0,0,0,0,1.281C14.648,18.554,15.344,19.477,16.064,20.38Zm21.808-7.561c.451.675.912,1.342,1.365,2.015.513.729,1.042,1.447,1.567,2.167-.526.72-1.054,1.439-1.57,2.167-.452.672-.912,1.338-1.363,2.011-1.1-1.241-2.236-2.448-3.451-3.6.018-.027.037-.053.054-.08l.055-.084a.77.77,0,0,0-.055-.912l-.062-.074C35.631,15.275,36.774,14.064,37.872,12.819Zm-18.828.005c1.1,1.243,2.239,2.452,3.456,3.6l-.062.073a.774.774,0,0,0-.055.916l.055.084c.018.027.037.054.055.081-1.215,1.152-2.354,2.36-3.45,3.6-.451-.675-.912-1.342-1.365-2.015-.513-.729-1.042-1.447-1.567-2.167.526-.72,1.054-1.439,1.57-2.167C18.133,14.164,18.594,13.5,19.044,12.824Z" transform="translate(0.759 0.324)"/>
    </g>
  </g>
</svg>
