<svg xmlns="http://www.w3.org/2000/svg" width="108" height="108" viewBox="0 0 108 108">
  <g id="Group_368" data-name="Group 368" transform="translate(-1184 -5772)">
    <circle id="Ellipse_5" data-name="Ellipse 5" cx="54" cy="54" r="54" transform="translate(1184 5772)" fill="#fff"/>
    <g id="_x35_7" transform="translate(1206.001 5791.636)">
      <path id="Path_24" data-name="Path 24" d="M2.7,16.8c-1.6,1.1-1.4,4,.2,5.6A3.841,3.841,0,0,0,8.8,22a3.978,3.978,0,0,0,1.4-2.7h.3c-.7,2.4-.7,5.5-.8,8.5-.1,6-.2,14.5-.4,20.6a7.732,7.732,0,0,0,.8,4.3,2.766,2.766,0,0,0,2.4,1.1,10.819,10.819,0,0,0,.2,4.4,2.258,2.258,0,0,0,1.8,2.3,10.757,10.757,0,0,0,5.9,1.4c4.1.1,8.2,0,12.4-.3,8.9.1,7.9,1.9,17.8-.4,3-.7,3.7-1.8,3.9-4.2.4-4.5,2.1-32.9,1.5-37.7a6.66,6.66,0,0,1,1.6.1,4.431,4.431,0,0,0,2.6,3.8,4.158,4.158,0,0,0,4.5-.8,4.058,4.058,0,0,0-1.3-7.2h-.2a4.227,4.227,0,0,0-4.5,2.3l-.5.5c-1,0-.7-.1-2.3-.1-.6-2.3-1.9-2.9-4.1-3.6-8.5-2.5-17,1.4-25.1.4-2.4-.3-5-1.7-7.7-.5-2.1-.2-4.1-.4-5.7,1a5.245,5.245,0,0,0-2,2.6h-1A4.142,4.142,0,0,0,7.5,15H7.3a4.459,4.459,0,0,0-4.6,1.8Zm60.1-.2H63a2.588,2.588,0,0,1,1.8,3.1,2.818,2.818,0,0,1-3.1,2,2.611,2.611,0,0,1,1.1-5.1ZM53.5,51h0c-12.4-3.3-26.2,1.6-38.1-2.2h-.2l.3-4.2c11.8,5.8,26.2-1.9,37.9,2.9a.367.367,0,0,0,.3.1C53.6,48.6,53.5,49.8,53.5,51Zm-39-25.2c-.6,7.8-1.1,17.6-1.7,25.8-1.4-.4-1.3-2.1-1.2-3.6.5-6.1.6-13.8.8-20.5.1-6,.1-7.1.3-8.1h2.6a32.769,32.769,0,0,0-.8,6.4ZM47.8,60.3V59a.789.789,0,0,0-.8-.8.736.736,0,0,0-.8.8v1.5c-3.7.6-5.2.2-9.6-.3a22.416,22.416,0,0,0,.6-5.2.752.752,0,1,0-1.5.1,20.741,20.741,0,0,1-.6,5c-5.1-.3-9.5.3-14.4-.1l.1-1.6a.752.752,0,0,0-1.5-.1l-.1,1.5c-1.7-.2-2.5-.5-3.2-.6s-1.7-.4-1.8-.8c-.2-.6.4-2.4.4-3.3.2-2.5.1-2.1.3-5C27.2,54,40.6,49,52.8,52.3h.4q-.15,2.4-.3,4.5c0,2.4-.4,2.5-5.1,3.5ZM21,15.3c2-.1,3.4.9,6.7,1.1-.8,2.5-.4,5,0,7.5s.8,4.8.1,6.9a.876.876,0,0,0,.5,1h.2a.752.752,0,0,0,.7-.5c.9-2.5.4-5.1,0-7.7-.4-2.5-.8-4.9,0-7v-.2c5.5,0,10.8-1.5,16.2-1.4a33.033,33.033,0,0,1,.5,9.4.773.773,0,0,0,.7.8h.1a.684.684,0,0,0,.7-.7,33.539,33.539,0,0,0-.5-9.5,20.324,20.324,0,0,1,4.3.7c1.6.5,2.5.8,2.9,1.9a15.157,15.157,0,0,1,.6,5.3c-.1,6.9,0,5.1-.9,23-12-4.8-26.4,2.7-37.7-2.8a.454.454,0,0,0-.5,0c.5-7.8,1.1-16.6,1.9-23.8a6.007,6.007,0,0,1,.7-2.7A3.29,3.29,0,0,1,21,15.3Zm-4,.3a7.994,7.994,0,0,0-1.3,2.2H13.1C13.8,16.1,15.1,15.6,17,15.6Zm-10.8.8c.3,0,.4,0,.5.1h.1a2.588,2.588,0,0,1,1.8,3.1,2.746,2.746,0,0,1-3.1,1.9,2.689,2.689,0,0,1-1.9-3.1,2.893,2.893,0,0,1,2.6-2Z"/>
      <path id="Path_25" data-name="Path 25" d="M52.4,5.6a.779.779,0,0,0-.9.6,12.762,12.762,0,0,0-.1,3.9.752.752,0,0,0,1.5-.1A13.684,13.684,0,0,1,53,6.5.779.779,0,0,0,52.4,5.6Z"/>
      <path id="Path_26" data-name="Path 26" d="M57.3,7.6a.751.751,0,0,0-1,.2l-1.6,2.7a.751.751,0,0,0,.2,1,.693.693,0,0,0,1-.3l1.6-2.7C57.8,8.3,57.7,7.9,57.3,7.6Z"/>
      <path id="Path_27" data-name="Path 27" d="M57.2,14.1a12.6,12.6,0,0,0,3.3-1,.731.731,0,0,0,.4-1,.819.819,0,0,0-1-.4,17.1,17.1,0,0,1-3,.9C56,12.8,56.2,14.3,57.2,14.1Z"/>
    </g>
  </g>
</svg>
