<svg xmlns="http://www.w3.org/2000/svg" width="46.224" height="35.001" viewBox="0 0 46.224 35.001">
  <g id="Group_321" data-name="Group 321" transform="translate(0 -46.929)">
    <path id="Path_66" data-name="Path 66" d="M215.51,178.837a4.295,4.295,0,1,0,.429.945A4.3,4.3,0,0,0,215.51,178.837Z" transform="translate(-188.686 -118.062)" fill="#68b190"/>
    <path id="Path_67" data-name="Path 67" d="M175.327,303.075h-2.2a6.971,6.971,0,0,0-6.971,6.971v4.815H182.3v-4.815a6.971,6.971,0,0,0-6.971-6.971Z" transform="translate(-151.1 -232.93)" fill="#68b190"/>
    <circle id="Ellipse_19" data-name="Ellipse 19" cx="6.565" cy="6.565" r="6.565" transform="translate(3.678 52.656) rotate(-22.514)" fill="#68b190"/>
    <path id="Path_68" data-name="Path 68" d="M12.341,244.667a9.7,9.7,0,0,1,5.982-8.957,7.033,7.033,0,0,1-2.161-4.129,5.707,5.707,0,0,1-3.909,1.464,9.236,9.236,0,0,1-5.575-1.865A11,11,0,0,0,0,241.289v5.352H12.341Z" transform="translate(0 -167.551)" fill="#68b190"/>
    <circle id="Ellipse_20" data-name="Ellipse 20" cx="6.565" cy="6.565" r="6.565" transform="translate(24.683 56.212) rotate(-45)" fill="#68b190"/>
    <path id="Path_69" data-name="Path 69" d="M324.769,235.368a10.947,10.947,0,0,0-4.945-4.188,9.235,9.235,0,0,1-5.575,1.865,5.44,5.44,0,0,1-3.864-1.552,7.031,7.031,0,0,1-2.173,4.217,9.7,9.7,0,0,1,5.982,8.957v1.974H326.5v-5.352A10.964,10.964,0,0,0,324.769,235.368Z" transform="translate(-280.278 -167.551)" fill="#68b190"/>
  </g>
</svg>
