<svg xmlns="http://www.w3.org/2000/svg" width="108" height="108" viewBox="0 0 108 108">
  <g id="Group_371" data-name="Group 371" transform="translate(-1194 -6016)">
    <circle id="Ellipse_10" data-name="Ellipse 10" cx="54" cy="54" r="54" transform="translate(1194 6016)" fill="#fff"/>
    <g id="_x32_0" transform="translate(1214.061 6038.741)">
      <path id="Path_46" data-name="Path 46" d="M13.4,20.3c2.7-2.1-1-6.4-3.3-3.3A2.369,2.369,0,0,0,13.4,20.3Z"/>
      <path id="Path_47" data-name="Path 47" d="M22,13.4c2.7-2.1-1-6.4-3.3-3.3C17.1,12.2,19.9,15.1,22,13.4Z"/>
      <path id="Path_48" data-name="Path 48" d="M5.1,43.1A3.825,3.825,0,0,0,5,40.7a2.672,2.672,0,0,1,.8-2.5,4.257,4.257,0,0,0,1.7-1.8h.1c.6,2-.8,2-1.1,3.7C6,41.6,7.2,42.8,8,44a7.247,7.247,0,0,1,.2,8.1.721.721,0,1,0,1.2.8,8.759,8.759,0,0,0-.3-9.8c-.7-.9-1.6-1.8-1.4-2.7a4.053,4.053,0,0,1,.5-.9A3.775,3.775,0,0,0,9,37.2L42.3,50.7c3.3,1.6,3,1.5,3.2,1.6,1.1,2,.9,3.7,1.4,5.6a7.174,7.174,0,0,0,4.5,4.5,13.734,13.734,0,0,1-2,1.3.706.706,0,0,0-.1,1.2A8.579,8.579,0,0,0,55,66.8a.713.713,0,0,0,.6-.3c.4-.5,0-.6-.9-3.5a8.856,8.856,0,0,0,6.2-1.9c3.7-3.3,4.2-10-1.2-15.5,1.3-.2,2.5-.4,3.8-.7a.821.821,0,0,0,.5-.5.878.878,0,0,0-.1-.7l-2.3-3c-.9-1.1-2-.8-2.7.4a21.016,21.016,0,0,0-1.3,2.6c-1.3-1.1-2.8-2.2-3.3-3.8-1-2.9,1.3-6,2.4-7.2,1-1.1,2.3-2.3,3.5-3.7a26.937,26.937,0,0,0,1.6,2.9c.1.2.4.3.6.4A.713.713,0,0,0,63,32l2.1-3.1a3.919,3.919,0,0,0,.4-.9c0-.7-.6-1.3-1.6-1.5-.6-.1-1.2-.2-1.7-.3,1.7-3.1,1.1-7.5-2-8.9a.762.762,0,1,0-.6,1.4c2.3,1,2.5,4.4,1.4,6.6a3.508,3.508,0,0,1-.5.8h-.1a19.659,19.659,0,0,1-1-3.2.785.785,0,0,0-1.2-.4,9.519,9.519,0,0,0-3.4,4.9c-.2.5.3,1,.8,1,1.1-.1,2.2-.2,3.4-.2-1.3,1.4-2.4,2.4-3.5,3.7-2.6,2.9-3.6,6.1-2.7,8.7a9.791,9.791,0,0,0,3.1,3.9,12.1,12.1,0,0,1-1.9-.1.8.8,0,0,0-.8,1,9.473,9.473,0,0,0,3.6,4.8.772.772,0,0,0,1.2-.5c.2-.9.5-1.9.7-2.8,4.7,4.8,4.2,10.5,1.1,13.2a7.29,7.29,0,0,1-5,1.5c.9-.8,1.8-1.7,2.7-2.6a.726.726,0,0,0-.3-1.2l-3.6-1.2c-1.4-.5-2.1.5-2,1.8a25.122,25.122,0,0,0,.4,2.7,5.808,5.808,0,0,1-3.8-3.5c-.5-1.9-.3-4.4-2.2-6.9a203.26,203.26,0,0,1-3.8-39,3.029,3.029,0,0,0,2.2,1,7.618,7.618,0,0,1,3.8,1.9.6.6,0,0,0,.4.1.713.713,0,0,0,.6-.3.684.684,0,0,0-.2-1,10.192,10.192,0,0,0-4-2.1c-1.8-.3-1.5,0-2.2-1.5,2.4.3,2.5-1.5,2.8-1.7.5-.3,2.7,2.3,6.9,1.5a.779.779,0,0,0,.6-.9c.2-.7-.1-.9-.6-.8A6.5,6.5,0,0,1,47.8,7c-.7-.4-1.6-1-2.6-.4-.7.4-.8,1.1-1.1,1.4-.4.4-2-.5-3.1.4C30.1,6.1,18.9,3.7,8.2,1.3a.661.661,0,0,0-.6.1v.1c-.1,0-.1,0-.2.1-.4.3-.5,1.2-.6,1.7C6.1,7.4,6,26.1,5.9,32.4a6.128,6.128,0,0,0,.4,2.7c-.4,1.3-.7,1.1-1.6,1.9a4.335,4.335,0,0,0-1.2,3.9c.1.6.4,1.2.2,1.5a4.514,4.514,0,0,1-.7.7c-1.3,1.3-.3,2.9.6,2.4a.714.714,0,0,0,.3-1c-.1-.2.8-.7,1.2-1.4Zm59-15.2-1.5,2.2a22.559,22.559,0,0,1-1.1-2.2,1.38,1.38,0,0,0,.3-.4C62.2,27.6,63.8,27.8,64.1,27.9Zm-5.6-3.7a19.452,19.452,0,0,0,.8,2.2,19.269,19.269,0,0,0-2.4.1,8.677,8.677,0,0,1,1.6-2.3Zm1.8,17.6c.1-.1.1-.2.2-.2l1.6,2.1a18.664,18.664,0,0,1-2.5.4.536.536,0,0,0-.3-.4,17.376,17.376,0,0,0,1-1.9ZM56.9,48a8.1,8.1,0,0,1-1.7-2.3h2.3C57.3,46.5,57.1,47.3,56.9,48ZM51.3,64.2c.7-.4,1.3-.9,1.9-1.3.2.8.5,1.5.7,2.3a10.611,10.611,0,0,1-2.6-1Zm2-6.4c.2.1,1.8.6,2.5.8-.6.6-1.2,1.2-1.8,1.7a.758.758,0,0,0-.4-.2A16.007,16.007,0,0,1,53.3,57.8ZM8.2,34.4c0-.1-.1-.1-.1-.2a38.113,38.113,0,0,1,11-14.5A329.86,329.86,0,0,0,43.3,49.4a326.907,326.907,0,0,0-35.1-15Zm-.4-3L8.7,4.7c3,4.7,6.2,9.3,9.5,13.8A39.506,39.506,0,0,0,7.8,31.4Zm36.6,17A377.956,377.956,0,0,1,20.3,18.9,38.478,38.478,0,0,1,41,11.1a197.8,197.8,0,0,0,3.4,37.3ZM39.9,9.7a39.811,39.811,0,0,0-20.5,7.9C16,12.8,12.6,8,9.5,3.1,19.6,5.4,29.9,7.5,39.9,9.7Z"/>
    </g>
  </g>
</svg>
