<svg xmlns="http://www.w3.org/2000/svg" width="108" height="108" viewBox="0 0 108 108">
  <g id="Group_373" data-name="Group 373" transform="translate(-598 -6016)">
    <circle id="Ellipse_8" data-name="Ellipse 8" cx="54" cy="54" r="54" transform="translate(598 6016)" fill="#fff"/>
    <g id="_x32_8" transform="translate(624.5 6042.671)">
      <path id="Path_38" data-name="Path 38" d="M49.931,46.328a4.149,4.149,0,0,0-2.763-2.21,4.428,4.428,0,0,0-.91-.115l-2.18-.027-2.741-.033a5.125,5.125,0,0,0,.983-2.216c.262.032.524.072.786.093a2.7,2.7,0,0,0,2.049-.594,2.867,2.867,0,0,0,1.036-2.019c.024-.6.035-1.08.038-1.626s0-1.027-.009-1.628a2.851,2.851,0,0,0-2.61-2.715,3.458,3.458,0,0,0-.5,0l-1.02.1c-.018-.323-.032-.646-.051-.97l0-.066v0a.487.487,0,0,0-.519-.453c-2.061.139-4.122.282-6.183.523,1.878.22,3.757.356,5.635.483-.016.275-.028.551-.044.826a.6.6,0,0,0-.1.41c.02.152.038.3.057.455-.107,2.045-.2,4.091-.247,6.136A3.29,3.29,0,0,1,39.133,43.4a3.138,3.138,0,0,1-1.486.492c-.227.017-.628.006-.961,0l-1.039,0-1.039.009c-.333,0-.735.012-.962,0a3.142,3.142,0,0,1-1.488-.493,3.27,3.27,0,0,1-1.505-2.726c-.073-2.622-.2-5.243-.361-7.865,1.679-.123,3.358-.248,5.037-.447-1.849-.218-3.7-.35-5.547-.486h0a.45.45,0,0,0-.477.42l0,.066q-.264,4.156-.386,8.311a5.047,5.047,0,0,0,1.02,3.216l-.361,0-3.432.016q-.037-6.151-.185-12.3t-.429-12.3l2.851.011.644,0-.077,1.195a2.667,2.667,0,0,0,1.747,2.511,2.707,2.707,0,0,0,.812.164c.222.014.374.01.564.014.107,0,1.7.024,2.726.029a6.941,6.941,0,0,0-.249.746,7.123,7.123,0,0,0,0,3.474,5.2,5.2,0,0,0,.784,1.737,5.2,5.2,0,0,0,.784-1.737,7.123,7.123,0,0,0,0-3.474,6.945,6.945,0,0,0-.25-.749L37.5,23.2c.363-.006.725,0,1.088-.023l.564-.024a2.677,2.677,0,0,0,.8-.163,2.592,2.592,0,0,0,1.711-2.485c-.03-.464-.057-.909-.087-1.353.031,0,.058-.005.089-.01a8.309,8.309,0,0,0,5.839-4.106,7.963,7.963,0,0,0,1.044-3.483c.034-.634.011-1.159,0-1.709L48.529,8.2l-.036-1.672a3.905,3.905,0,0,0-3.968-3.708l-6.576.165c-4.384.165-8.768.262-13.151.487,4.384.225,8.768.323,13.151.487l6.576.165a2.556,2.556,0,0,1,2.136,1.255A2.4,2.4,0,0,1,47,6.588L46.974,8.2l-.029,1.644c-.01.546-.012,1.117-.056,1.577A6.392,6.392,0,0,1,46,14.165a6.489,6.489,0,0,1-4.627,3.116,27,27,0,0,1-3.131.072l-9.863-.035-13.151.052-1.644.018-.811,0c-.239-.017-.482,0-.72-.041a6.569,6.569,0,0,1-2.708-.934,6.679,6.679,0,0,1-3.086-4.732c-.04-.242-.039-.489-.063-.734l-.018-.816L6.114,6.849a2.67,2.67,0,0,1,.232-1.3A2.592,2.592,0,0,1,8.407,4.061c1-.052,2.165-.058,3.24-.1C16.03,3.8,20.414,3.7,24.8,3.476c-4.384-.227-8.768-.324-13.151-.49C10.529,2.96,9.5,2.914,8.311,2.917A3.824,3.824,0,0,0,5.173,4.966a3.925,3.925,0,0,0-.444,1.883l-.058,3.288-.011.828c.015.3.007.6.045.905A8.167,8.167,0,0,0,8.4,17.9a8.358,8.358,0,0,0,3.428,1.264c.3.05.612.048.919.072l.812.013c-.376,7.678-.579,17.308-.616,24.757l-2.236.027a5.48,5.48,0,0,0-1.666.176,4.114,4.114,0,0,0-2.607,2.33,4.06,4.06,0,0,0,.141,3.445,3.942,3.942,0,0,0,2.706,2.046,4.2,4.2,0,0,0,.861.08l2.179-.06,2.9-.084c3.869-.165,7.738-.262,11.607-.487-3.869-.225-7.738-.323-11.607-.487l-5.075-.146a2.921,2.921,0,0,1-.577-.088,2.645,2.645,0,0,1-1.71-1.42,2.564,2.564,0,0,1,0-2.17,2.5,2.5,0,0,1,1.638-1.35,4.245,4.245,0,0,1,1.213-.072l2.808.034a.964.964,0,0,0,.38.082c.156,0,3.659.037,9.865,0l5.808.028,4.29-.019c.171.006,1.685.017,1.787.018l1.039,0c.359-.007.651.006,1.116-.028l.022,0,3.353-.015,4.353-.053.722-.008a2.682,2.682,0,0,1,.528.053,2.454,2.454,0,0,1,1.654,1.257,2.5,2.5,0,0,1,.109,2.114,2.559,2.559,0,0,1-1.607,1.46,3.96,3.96,0,0,1-1.243.127l-1.451.037-5.8.165c-3.869.166-7.738.263-11.607.49,3.869.227,7.738.324,11.607.49l5.8.165,1.451.037a5.314,5.314,0,0,0,1.636-.123,4.063,4.063,0,0,0,2.641-2.218A4.116,4.116,0,0,0,49.931,46.328Zm-9.853-25.85a.974.974,0,0,1-.7.811.856.856,0,0,1-.263.025l-.524-.02c-.363-.019-.725-.017-1.088-.023l-2.176-.029c-.725-.01-1.45.014-2.176.019l-1.088.014-.524.01a.829.829,0,0,1-.255-.023.9.9,0,0,1-.663-.785l-.078-1.168,7.694-.027c.636-.017,1.262,0,1.922-.013C40.134,19.679,40.11,20.087,40.078,20.478ZM24.4,31.6q-.146,6.155-.185,12.311l-.453,0q-4.445-.027-8.89,0c-.039-7.453-.24-17-.615-24.66l.968.01,9.6.038Q24.529,25.452,24.4,31.6ZM43.606,35.03a1.058,1.058,0,0,1,.344.253,1.1,1.1,0,0,1,.292.739l0,1.557.031,1.558a1.07,1.07,0,0,1-.279.785,1.258,1.258,0,0,1-.885.414c-.239.019-.479.056-.718.085-.047-1.861-.127-3.722-.223-5.583l.941.088A1.227,1.227,0,0,1,43.606,35.03Z"/>
      <path id="Path_39" data-name="Path 39" d="M38.779,12.321a2.413,2.413,0,0,0,1.769-.77,2.286,2.286,0,0,0,.605-1.765A2.111,2.111,0,0,0,40.31,8.26a1.705,1.705,0,0,0-1.523-.268,1.649,1.649,0,0,1,1.2,1.792,1.215,1.215,0,0,1-2.4,0,1.651,1.651,0,0,1,1.2-1.788,1.713,1.713,0,0,0-1.525.262,2.108,2.108,0,0,0-.85,1.524,2.287,2.287,0,0,0,.6,1.769A2.416,2.416,0,0,0,38.779,12.321Z"/>
      <path id="Path_40" data-name="Path 40" d="M32.147,12.321a2.413,2.413,0,0,0,1.769-.77,2.285,2.285,0,0,0,.605-1.765,2.111,2.111,0,0,0-.843-1.525,1.705,1.705,0,0,0-1.523-.268,1.649,1.649,0,0,1,1.2,1.792,1.215,1.215,0,0,1-2.4,0,1.651,1.651,0,0,1,1.2-1.788,1.713,1.713,0,0,0-1.525.262,2.109,2.109,0,0,0-.85,1.524,2.287,2.287,0,0,0,.6,1.769A2.416,2.416,0,0,0,32.147,12.321Z"/>
      <path id="Path_41" data-name="Path 41" d="M25.516,12.321a2.413,2.413,0,0,0,1.769-.77,2.285,2.285,0,0,0,.605-1.765,2.11,2.11,0,0,0-.843-1.525,1.705,1.705,0,0,0-1.523-.268,1.649,1.649,0,0,1,1.2,1.792,1.215,1.215,0,0,1-2.4,0,1.651,1.651,0,0,1,1.2-1.788A1.713,1.713,0,0,0,24,8.254a2.108,2.108,0,0,0-.85,1.524,2.287,2.287,0,0,0,.6,1.769A2.416,2.416,0,0,0,25.516,12.321Z"/>
    </g>
  </g>
</svg>
