<svg xmlns="http://www.w3.org/2000/svg" width="108" height="108" viewBox="0 0 108 108">
  <g id="Group_374" data-name="Group 374" transform="translate(-309 -6016)">
    <g id="Group_347" data-name="Group 347" transform="translate(0 -18)">
      <circle id="Ellipse_7" data-name="Ellipse 7" cx="54" cy="54" r="54" transform="translate(309 6034)" fill="#fff"/>
      <g id="_x35_5" transform="translate(326.5 6051.5)">
        <path id="Path_31" data-name="Path 31" d="M46.509,44.674a.75.75,0,0,0,.983,1.133,10.631,10.631,0,0,0-.485-16.432.75.75,0,0,0-.915,1.189A9.128,9.128,0,0,1,46.509,44.674Z"/>
        <path id="Path_32" data-name="Path 32" d="M52.323,51.842a19,19,0,0,0-.371-29.523.75.75,0,1,0-.928,1.178,17.641,17.641,0,0,1,6.664,13.515,17.88,17.88,0,0,1-6.322,13.677.75.75,0,1,0,.957,1.154Z"/>
        <path id="Path_33" data-name="Path 33" d="M55.814,60.169C68.553,55.274,70.86,35.76,66.425,24a24.284,24.284,0,0,0-9.752-12.234.75.75,0,0,0-.783,1.279,22.782,22.782,0,0,1,9.132,11.484c4.163,11.047,2.13,29.681-9.747,34.244a.75.75,0,1,0,.538,1.4Z"/>
        <path id="Path_34" data-name="Path 34" d="M29.218,30.545a.75.75,0,1,0-.945-1.164c-.053.043-.1.094-.151.138l-1.491.012a11.294,11.294,0,0,0,.391,16.928l1.214-.625a.742.742,0,0,0,1.03-.118.75.75,0,0,0-.1-1.056A9.129,9.129,0,0,1,29.218,30.545Z"/>
        <path id="Path_35" data-name="Path 35" d="M36.466,45.483c4.4.258,8.974-3.926,8.4-8.689-.673-5.594-7.106-7.758-11.278-4.875a7.425,7.425,0,0,0-4.122,6.916A7.59,7.59,0,0,0,36.466,45.483ZM32.816,34.86c2.7-4.472,9.924-3.184,10.562,2.113a5.977,5.977,0,0,1-3.286,5.917,5.9,5.9,0,0,1-6.618-1.33A5.818,5.818,0,0,1,32.816,34.86Z"/>
        <path id="Path_36" data-name="Path 36" d="M20.059,50.858A4.6,4.6,0,0,0,22.01,52.31a2.034,2.034,0,0,0,1.71-.232.747.747,0,0,0,.742-1.28,17.879,17.879,0,0,1-6.671-13.51,17.641,17.641,0,0,1,6.315-13.681.744.744,0,0,0-.9-1.188c-1.021.14-1.768-.04-2.437.562C13.069,29.915,12.483,42.443,20.059,50.858Z"/>
        <path id="Path_37" data-name="Path 37" d="M14.736,59.934a6.488,6.488,0,0,0,3.331,1.41,3.247,3.247,0,0,0,2.478-.917.748.748,0,0,0,.216-1.452,16.675,16.675,0,0,1-8.663-7.63C6.6,41.75,6.14,21.6,18.974,13.279a.75.75,0,1,0-.816-1.258c-.184.119-.356.259-.536.384a5.447,5.447,0,0,1-1.481-.172,32.38,32.38,0,0,0-11.1,18.725C2.751,43.254,8.137,55.156,14.736,59.934Z"/>
      </g>
    </g>
  </g>
</svg>
