<svg xmlns="http://www.w3.org/2000/svg" width="108" height="108" viewBox="0 0 108 108">
  <g id="Group_365" data-name="Group 365" transform="translate(-309 -5772)">
    <circle id="Ellipse_1" data-name="Ellipse 1" cx="54" cy="54" r="54" transform="translate(309 5772)" fill="#fff"/>
    <g id="Group_7" data-name="Group 7" transform="translate(331.993 5791.973)">
      <path id="Path_1" data-name="Path 1" d="M32.5,35.3a15.371,15.371,0,0,1,1.9-1.7A5.45,5.45,0,0,0,35.6,36a.721.721,0,1,0,1.2-.8,5.7,5.7,0,0,1-1.1-2.8.832.832,0,0,0-1.1-.6,12.61,12.61,0,0,0-3.1,2.5.785.785,0,0,0,0,1.1.775.775,0,0,0,1-.1Z"/>
      <path id="Path_2" data-name="Path 2" d="M32.8,35.2a2.272,2.272,0,0,0,2.9-.9l2.1.9a.762.762,0,0,0,.6-1.4c-2.5-1-2.7-1.2-3.2-1a2.047,2.047,0,0,0-.8.8.81.81,0,0,1-1,.3c-.3-.2-.7-.6-1.2-1a1.61,1.61,0,0,0-2.5.5,1.483,1.483,0,0,0-.1.7.776.776,0,0,0,.3,1.5,1.09,1.09,0,0,0,1.1-1s.1-.4,0-.5a.756.756,0,0,1,.4.1c.4.2.8.7,1.4,1Z"/>
      <g id="Group_6" data-name="Group 6">
        <path id="Path_3" data-name="Path 3" d="M13.9,35.3a.715.715,0,0,0,.5-.9c0-.2.1-.4.3-.4a.779.779,0,0,0,.6-.9c-.3-1.5-2.8-.1-2.3,1.7a.8.8,0,0,0,.9.5Z"/>
        <path id="Path_4" data-name="Path 4" d="M19.4,32.3a.188.188,0,0,1,.3,0,.684.684,0,0,0,1-.2c.7-1-1.1-1.9-2.2-1a.784.784,0,0,0-.1,1.1.758.758,0,0,0,1,.1Z"/>
        <path id="Path_5" data-name="Path 5" d="M25.5,19.7a.819.819,0,0,0,.4-1,1.091,1.091,0,0,1,.3-1.3.781.781,0,0,0-1-1.2,2.62,2.62,0,0,0-.7,3.1.758.758,0,0,0,1,.4Z"/>
        <path id="Path_6" data-name="Path 6" d="M27.9,9.8,29,10a.779.779,0,0,0,.9-.6.641.641,0,0,0-.6-.8l-1.2-.2a.779.779,0,0,0-.9.6C27.1,9.4,27.5,9.7,27.9,9.8Z"/>
        <path id="Path_7" data-name="Path 7" d="M43.4,15.5a.68.68,0,0,1,.4.8.783.783,0,0,0,.7,1c1.2,0,1.2-2.5-.5-3.2a.731.731,0,0,0-1,.4.886.886,0,0,0,.4,1Z"/>
        <path id="Path_8" data-name="Path 8" d="M37.5,19.6h.6a.789.789,0,0,0,.8-.8.736.736,0,0,0-.8-.8h-.6a.8.8,0,0,0,0,1.6Z"/>
        <path id="Path_9" data-name="Path 9" d="M47.6,31.3a.721.721,0,1,0,1.2.8.764.764,0,0,1,.5-.2.715.715,0,0,0,.9-.5c.3-1.1-1.7-1.4-2.6-.1Z"/>
        <path id="Path_10" data-name="Path 10" d="M56.8,30.8a.746.746,0,0,0,.6-1.2l-.7-.8a.9.9,0,0,0-1.1-.1.784.784,0,0,0-.1,1.1C56.1,30.3,56.2,30.8,56.8,30.8Z"/>
        <path id="Path_11" data-name="Path 11" d="M54.5,35.3l.1-.1a.778.778,0,1,0-1.1-1.1l-.1.1a.778.778,0,1,0,1.1,1.1Z"/>
        <path id="Path_12" data-name="Path 12" d="M5,37.3a4.045,4.045,0,0,0,4.1,2V40a3.632,3.632,0,0,0,1.4,3.1,8.056,8.056,0,0,0,6,1.9,7.209,7.209,0,0,0,5-2.9.781.781,0,0,0,.4.4c2.8,3.9,5.8,4.6,7,7.9-.6,5.1-1.7,8.8-6.2,10.6-1.5.6-3,1-3.6,2.5-.6,1.4-2.6,1.2-4.5,1.3a.773.773,0,0,0-.7.8.684.684,0,0,0,.7.7c2.6,0,4.9-.1,5.8-2.2.4-.9,1.8-1.3,2.7-1.6,5.8-2.3,6.8-7.8,7.3-12.6a.775.775,0,0,0,.4-1.4,35.674,35.674,0,0,1-7.2-6.8l.9-.3a33.416,33.416,0,0,0,6.2,4.8.738.738,0,0,0,.7-1.3,2.092,2.092,0,0,1-.6-.4,117.484,117.484,0,0,0-.3-17.3,6.117,6.117,0,0,0,1.2.5c0,.5,0-.4.6,2.3.2.8.4,1.7.6,2.3a.74.74,0,0,0,1.4,0c.3-1.1.9-2.6,1.6-4.6a6.686,6.686,0,0,0,2.5-1.6,25.364,25.364,0,0,0-2.5,10.5,28.114,28.114,0,0,0-2,2.4.781.781,0,1,0,1.2,1c2.4-3,3.7-4.3,5.8-5.6v.2a2.65,2.65,0,0,0,.1,1.3c-3.1,2.5-5.1,4.3-6.9,9.1a.739.739,0,0,0,.7,1,.752.752,0,0,0,.7-.5c.1-.2.1-.4.2-.6-.2,19.7,5.3,16.7,8.1,18.3,1.1.6,1.8,1.9,3.4,2.4,2.1.6,4.2-.2,5.9.5a.762.762,0,1,0,.6-1.4,8.236,8.236,0,0,0-3.5-.4c-2.7.1-3-.2-4.2-1.3a5.916,5.916,0,0,0-3.5-1.8,4.923,4.923,0,0,1-1.7-.6c-3.9-2.2-3.5-13.8-3.5-18.3a13.474,13.474,0,0,1,4.6-4.9A4.4,4.4,0,0,0,44.6,39a9.15,9.15,0,0,0,1.7-.1A3.583,3.583,0,0,0,51,40.4,4.64,4.64,0,0,0,57.9,38c5.6.3,7.4-5.2,4.1-7.4a3.678,3.678,0,0,0,.2-2.9,7.041,7.041,0,0,0-2.5-3.1,6.891,6.891,0,0,0-4.1-.7,4.4,4.4,0,0,0-2.3,1,5.331,5.331,0,0,0-3.2-1.5,3.353,3.353,0,0,0-.6-2.4,5.675,5.675,0,0,0,3.3-4.2c1-3.5-1.7-6.9-5.3-7.9a11.075,11.075,0,0,0-5-.3,5.637,5.637,0,0,0-3.4-5.4,5.694,5.694,0,0,0-6.4,1.2C28-.9,18.5,2.2,19,9.8a5.872,5.872,0,0,0-8.1,3.7,6,6,0,0,0,1.5,5c-2.7.9-3.3,3.8-1.8,6.2a3.888,3.888,0,0,0-2.5,3.8A6.4,6.4,0,0,0,4.4,34,5.311,5.311,0,0,0,5,37.3Zm20.7,3.1a3.733,3.733,0,0,0,1.2-2.6,2.939,2.939,0,0,0,1.8-2.1,3.249,3.249,0,0,0-1.5-4.1,3.545,3.545,0,0,0,.3-1.1,5.513,5.513,0,0,0,1.7-1.7,119.491,119.491,0,0,1,.2,14.8C28.1,42.6,26.9,41.5,25.7,40.4Zm8.1-11.1a5.732,5.732,0,0,0-.4-1.4h.8c-.1.5-.3,1-.4,1.4Zm3.7,5.5A23.851,23.851,0,0,1,40,26.1a7.459,7.459,0,0,0,1.2.7,5.541,5.541,0,0,0-1.1,4.3,1.668,1.668,0,0,0,.5,1.4c-1.2.9-2.2,1.5-3.1,2.3Zm14.7-8.5a.9.9,0,0,0-.1.5.732.732,0,0,0,1.4.4c.1-.2.1-.4.2-.6a2.589,2.589,0,0,1,2-1.3,5.165,5.165,0,0,1,3.2.5,4.846,4.846,0,0,1,1.9,2.3,1.536,1.536,0,0,1-.5,1.9.753.753,0,0,0,.2,1.4,2.043,2.043,0,0,1,1.6,2c0,2-2.3,3.3-4.5,2.2a.782.782,0,0,0-1.1.5A3.3,3.3,0,0,1,52,38.4a3.371,3.371,0,0,0,.5-1.7c0-.7-.9-.8-.8-.7a.713.713,0,0,0-.7.8,1.859,1.859,0,0,1-1.8,1.8,1.936,1.936,0,0,1-1.8-1.8.773.773,0,0,0-.7-.8.871.871,0,0,0-.8.6,3.219,3.219,0,0,1-1.7.1c-.7-.3-2.5-2.5-1.7-3.7a.775.775,0,0,0-.2-1c-1.7-1.1-.5-4.1.7-4.7a1.63,1.63,0,0,1,2,.3.734.734,0,0,0,1.3-.3A3.031,3.031,0,0,1,48.1,25a4.569,4.569,0,0,1,3.7.7c.3.2.4.3.4.6ZM12.8,19.9a1.95,1.95,0,0,1,1.5,0,.762.762,0,0,0,.6-1.4,4.871,4.871,0,0,1-2.6-4.8,4.426,4.426,0,0,1,3.9-3.1,3.868,3.868,0,0,1,3.3,1.5.767.767,0,0,0,1.3-.8,5.905,5.905,0,0,1,.7-5.7,6.236,6.236,0,0,1,5.3-2.4,6.114,6.114,0,0,1,5,2.9.751.751,0,0,0,1.3,0,4.107,4.107,0,0,1,5.2-1.5,4.034,4.034,0,0,1,2.3,4.9.74.74,0,0,0,1.1.9c1-.6,3-.6,5.2,0,2.3.6,4.2,2.5,4.4,4.5a4.514,4.514,0,0,1-3.6,4.6.73.73,0,0,0-.5,1.1,3.824,3.824,0,0,1,.2,3,4.691,4.691,0,0,0-2.2,2.2,3.185,3.185,0,0,0-2.7,0,6.96,6.96,0,0,1-2.7-1.9.762.762,0,0,0-1.4-.6A5.107,5.107,0,0,1,30,24.7a.778.778,0,0,0-.8-.2c-.9.4,0,1.3-1.2,3.1a6.47,6.47,0,0,1-.8.9c-1.2-3.1-6.4-5.7-9.7-3.1-1-1.9-3.4-2.2-5.5-1.5a2.428,2.428,0,0,1,.8-4ZM9.4,29.6a.731.731,0,0,0,.4-1,1.768,1.768,0,0,1,.3-1.6A4.847,4.847,0,0,1,12,25.7h.1a4.646,4.646,0,0,1,3.1-.3,1.7,1.7,0,0,1,1.2,1.7.751.751,0,0,0,.4.9.731.731,0,0,0,1-.4A3.356,3.356,0,0,1,20.7,26,6.24,6.24,0,0,1,26,29.5a1.338,1.338,0,0,1,.1.5c.1,1.3-.9,1.2-.7,2,.1.3.3.5.5.5a2.031,2.031,0,0,1,1.6,2.1,2.189,2.189,0,0,1-2.2,1.7.713.713,0,0,0-.6.3.878.878,0,0,0-.1.7,1.847,1.847,0,0,1-.5,1.9,1.9,1.9,0,0,1-1.3.5c-.4,0-1-.3-1.6-.3a1.744,1.744,0,0,0-1.7,1.4c0,.1-.1.2-.1.3-.6,1.7-3.8,1.8-5.9,1.4a4.388,4.388,0,0,1-2.7-1.7,1.966,1.966,0,0,1,.3-2.5c.3-.2.3-.6.1-1a.806.806,0,0,0-.9-.3,3.445,3.445,0,0,1-3.7-1,3.506,3.506,0,0,1-.4-3.7,6.227,6.227,0,0,1,3.2-2.7Z"/>
      </g>
    </g>
  </g>
</svg>
