<svg xmlns="http://www.w3.org/2000/svg" width="22.917" height="24.827" viewBox="0 0 22.917 24.827">
  <path id="Icon_ionic-md-flower" data-name="Icon ionic-md-flower" d="M24.857,15.788a4.418,4.418,0,0,0-1.916-8.427,4.494,4.494,0,0,0-2.542.782l.036-.334a4.476,4.476,0,0,0-8.952,0l.036.334A4.443,4.443,0,1,0,7.06,15.788a4.418,4.418,0,0,0,1.916,8.427,4.494,4.494,0,0,0,2.542-.782l-.036.334a4.476,4.476,0,0,0,8.952,0l-.036-.334a4.443,4.443,0,1,0,4.458-7.645Zm-8.9,4.434a4.434,4.434,0,1,1,4.476-4.434A4.457,4.457,0,0,1,15.959,20.223Z" transform="translate(-4.5 -3.375)" fill="#ab3c20"/>
</svg>
