<svg xmlns="http://www.w3.org/2000/svg" width="76.664" height="76.665" viewBox="0 0 76.664 76.665">
  <path id="Path_73" data-name="Path 73" d="M52.74,16.249,16.252,52.736a5.036,5.036,0,0,1-7.115,0L1.475,45.074a5.031,5.031,0,0,1,0-7.115L3.664,35.77a.9.9,0,0,1,1.278,0l3.348,3.348a.929.929,0,0,0,1.285.046.9.9,0,0,0,.02-1.3L6.219,34.492a.9.9,0,0,1,0-1.278l4.833-4.833a.9.9,0,0,1,1.278,0l5.2,5.2A.9.9,0,0,0,18.807,32.3l-5.2-5.2a.9.9,0,0,1,0-1.278l4.833-4.833a.9.9,0,0,1,1.278,0l3.375,3.375a.9.9,0,0,0,1.278-1.278L21,19.715a.9.9,0,0,1,0-1.278L25.83,13.6a.9.9,0,0,1,1.278,0l5.2,5.2a.9.9,0,0,0,1.278-1.278l-5.2-5.2a.9.9,0,0,1,0-1.278l4.833-4.833a.9.9,0,0,1,1.278,0L37.871,9.59a.9.9,0,0,0,1.278-1.278L35.774,4.937a.9.9,0,0,1,0-1.278l2.189-2.189a5.031,5.031,0,0,1,7.115,0L52.74,9.133A5.038,5.038,0,0,1,52.74,16.249Z" transform="translate(38.33 0.001) rotate(45)" fill="#68b190"/>
</svg>
