<svg xmlns="http://www.w3.org/2000/svg" width="25.741" height="40.116" viewBox="0 0 25.741 40.116">
  <path id="Path_65" data-name="Path 65" d="M9.682,15l6-4.358a3.735,3.735,0,0,1,2.327-.719,4.9,4.9,0,0,1,4.543,3.407,8.259,8.259,0,0,0,.955,2.213,9.345,9.345,0,0,0,7.484,3.74v3.744A13.077,13.077,0,0,1,20.878,18.26l-1.3,7.4L23.431,28.9l4.161,11.434-3.519,1.28-3.819-10.49L13.909,25.8a3.744,3.744,0,0,1-1.335-3.564l.953-5.4-1.267.921L8.278,23.237l-3.029-2.2,4.4-6.058ZM20.694,8.988a3.744,3.744,0,1,1,2.647-1.1A3.744,3.744,0,0,1,20.694,8.988ZM15.131,33.662l-6.016,7.17L6.247,38.426l5.571-6.638,1.4-4.081,3.353,2.808Z" transform="translate(-5.249 -1.5)" fill="#68b190"/>
</svg>
